<?xml version="1.0" encoding="utf-8"?>
<svg viewBox="0 0 192 192" xmlns="http://www.w3.org/2000/svg">
  <rect width="192" height="192" style="fill: rgb(56, 90, 84);" transform="matrix(0.9999999999999999, 0, 0, 0.9999999999999999, 0, 0)"/>
  <path d="M 138.968 96.001 C 138.968 119.203 119.731 138.012 96 138.012 C 72.27 138.012 53.033 119.203 53.033 96.001 C 53.033 89.722 54.442 83.765 56.967 78.416 C 58.243 78.706 59.627 78.865 61.074 78.865 C 67.455 78.865 72.627 75.774 72.627 71.962 C 72.627 69.242 69.994 66.89 66.169 65.765 C 73.897 58.474 84.414 53.989 96 53.989 C 103.012 53.989 109.63 55.631 115.476 58.543 C 114.896 58.494 114.305 58.469 113.705 58.469 C 106.438 58.469 100.547 62.122 100.547 66.627 C 100.547 71.133 106.438 74.785 113.705 74.785 C 120.896 74.785 126.739 71.21 126.861 66.769 C 134.355 74.331 138.968 84.639 138.968 96.001 Z M 114.347 97.064 C 104.421 97.064 96.375 101.841 96.375 107.733 C 96.375 113.625 104.421 118.401 114.347 118.401 C 124.272 118.401 132.318 113.625 132.318 107.733 C 132.318 101.841 124.272 97.064 114.347 97.064 Z M 71.023 109.301 C 67.122 109.301 63.963 111.971 63.963 115.264 C 63.963 118.557 67.122 121.225 71.023 121.225 C 74.922 121.225 78.082 118.557 78.082 115.264 C 78.082 111.971 74.922 109.301 71.023 109.301 Z" style="fill: rgb(205, 205, 205);" transform="matrix(0.9999999999999999, 0, 0, 0.9999999999999999, 0, 0)"/>
</svg>